<svg xmlns="http://www.w3.org/2000/svg" width="118" height="118" viewBox="0 0 118 118">
  <g id="Group_1" data-name="Group 1" transform="translate(-140 -162)">
    <g id="Ellipse_1" data-name="Ellipse 1" transform="translate(140 162)" fill="#cbe7f0" stroke="#24667a" stroke-width="8">
      <circle cx="59" cy="59" r="59" stroke="none"/>
      <circle cx="59" cy="59" r="55" fill="none"/>
    </g>
    <path id="Path_1" data-name="Path 1" d="M157.774,241.531c.861,4.618,3.159,7.978,11.066,15.012,6.993,6.222,18.43,11.528,27.9,11.528,8.627,0,19.524-3.869,26.718-9.449,8.643-6.7,11.906-12.284,12.566-17.091s-19.722-9.9-39.284-9.9S156.912,236.913,157.774,241.531Z" transform="translate(2)" fill="#24667a"/>
    <g id="Ellipse_2" data-name="Ellipse 2" transform="matrix(0.999, 0.035, -0.035, 0.999, 171.253, 172.201)" fill="#24667a" stroke="#cbe7f0" stroke-width="6">
      <ellipse cx="28.5" cy="33.5" rx="28.5" ry="33.5" stroke="none"/>
      <ellipse cx="28.5" cy="33.5" rx="25.5" ry="30.5" fill="none"/>
    </g>
  </g>
</svg>
